<svg xmlns="http://www.w3.org/2000/svg" width="256" height="244.475" viewBox="0 0 256 244.475">
  <g id="favicon" transform="translate(-103.216 -157.124)">
    <path id="路径_11238" data-name="路径 11238" d="M217.982,349.132a53.388,53.388,0,1,0-65.736-84.141Z" transform="translate(120.709 -23.956)" fill="#71b8bc"/>
    <path id="路径_11239" data-name="路径 11239" d="M139.746,280.74a53.386,53.386,0,1,0,105.976,13.011Z" transform="translate(80.231 60.959)" fill="#71b8bc"/>
    <g id="组_2441" data-name="组 2441" transform="translate(103.216 157.124)">
      <path id="路径_385" data-name="路径 385" d="M171.227,303.42a5.421,5.421,0,0,1-4.7-2.71l-32.6-56.457a5.419,5.419,0,0,1,9.387-5.419l32.6,56.457a5.423,5.423,0,0,1-4.687,8.129Z" transform="translate(-42.232 -236.124)" fill="#71b8bc"/>
      <path id="路径_386" data-name="路径 386" d="M178.98,295.657a5.35,5.35,0,0,1-2.706-.728l-56.457-32.595a5.419,5.419,0,0,1,5.419-9.387l56.457,32.6a5.419,5.419,0,0,1-2.714,10.111Z" transform="translate(-92.733 -185.622)" fill="#71b8bc"/>
      <path id="路径_387" data-name="路径 387" d="M181.826,285.05H116.631a5.417,5.417,0,0,1,0-10.835h65.194a5.417,5.417,0,0,1,0,10.835Z" transform="translate(-111.216 -116.634)" fill="#71b8bc"/>
    </g>
  </g>
</svg>
